<?xml version="1.0" encoding="utf-8"?>
<!-- Generator: Adobe Illustrator 28.1.0, SVG Export Plug-In . SVG Version: 6.00 Build 0)  -->
<svg version="1.1" id="Layer_1" xmlns="http://www.w3.org/2000/svg" xmlns:xlink="http://www.w3.org/1999/xlink" x="0px" y="0px"
	 viewBox="0 0 439.4 197.3" style="enable-background:new 0 0 439.4 197.3;" xml:space="preserve">
<style type="text/css">
	.st0{fill:#FFFFFF;}
	.st1{fill:#A5A4A4;}
	.st2{fill:#E2E2E2;}
</style>
<g>
	<path class="st0" d="M137.2,83.2V15.8h13v67.4H137.2z"/>
	<path class="st0" d="M185.4,83.2v-6.9c-3.4,5.6-8.5,8.2-15.4,8.2c-9.8,0-16.8-7.3-16.8-18.2V33.8h13v30.5c0,6.2,2.8,9.2,8.3,9.2
		c6.6,0,10.1-4.7,10.1-11.2V33.8h12.9v49.4H185.4z"/>
	<path class="st0" d="M245.4,65.3c-1.4,11.4-10.7,19.2-22.7,19.2c-13.4,0-22.7-8.9-22.7-26.6c0-17.7,9.2-25.4,23.1-25.4
		c12.8,0,21.6,7.3,22.4,19h-13.1c-0.7-5.1-4.4-8.1-9.3-8.1c-5.5,0-10,3.5-10,14.3c0,10.7,4.5,16,9.6,16c5.1,0,9.1-2.9,9.6-8.2H245.4
		z"/>
	<path class="st0" d="M294.8,83.2c-0.4-1.2-0.7-2.9-0.8-4.4c-3.1,3.4-8.3,5.7-15,5.7c-11.2,0-16.5-5.5-16.5-13.5
		c0-14.3,9.5-15.9,22.7-17.7c6.5-0.9,8.3-2.2,8.3-5.6c0-3.2-3.2-5.1-8.3-5.1c-5.9,0-8.3,2.9-8.9,7.3h-12.1
		c0.2-10.2,5.8-17.4,21.7-17.4c15.7,0,21.1,7,21.1,19.5v31.2H294.8z M293.9,59c-1.3,1.3-3.6,2-8.4,2.9c-7.4,1.4-9.8,3.5-9.8,7.7
		c0,3.7,2.2,5.5,6.3,5.5c6.7,0,11.7-4.9,11.8-10.7L293.9,59z"/>
	<path class="st0" d="M356.6,58.5c0-15.7,9.7-26,25.4-26c15.5,0,25.1,10.2,25.1,26c0,15.7-9.7,26-25.1,26
		C366,84.5,356.6,73.9,356.6,58.5z M393.9,58.5c0-10-4-15-11.9-15s-11.9,4.9-11.9,15s4,15.1,11.9,15.1S393.9,68.5,393.9,58.5z"/>
	<path class="st1" d="M195.1,138.9V109c0-5.9-3.1-10.1-7.7-10.1c-4.8,0-8.3,4.5-8.3,10.5v29.5h-13.1v-29.7c0-7.9-2.1-9.9-7.8-9.9
		c-5.2,0-7.9,3.2-7.9,9.6v30h-13.1V89.5h12.3v7.2c3.3-6.5,7.9-8.5,14.5-8.5c6.7,0,10,2.1,13.8,7.8c2.7-5.4,7.1-7.8,13.4-7.8
		c10,0,16.9,7.2,16.9,16.5v34.2H195.1z"/>
	<path class="st1" d="M210.6,114.2c0-15.7,9.8-26,25.4-26c15.5,0,25.1,10.2,25.1,26c0,15.7-9.8,26-25.1,26
		C220.1,140.2,210.6,129.6,210.6,114.2z M248,114.2c0-10-4-15-12-15c-7.9,0-12,4.9-12,15s4,15.1,12,15.1
		C244,129.3,248,124.3,248,114.2z"/>
	<path class="st1" d="M263.3,138.9V89.5h12.3v5.9c4.3-6.6,9.3-7.2,14.7-7.2h1.7v13.4c-1.2-0.2-2.4-0.3-3.6-0.3c-8,0-12,4-12,11.9
		v25.7H263.3z"/>
	<path class="st1" d="M304.6,117.6c0.4,7.4,4.6,12.3,11.1,12.3c4.2,0,7.9-2.1,8.8-5.5h13.5c-3,10.1-11.2,15.9-21.7,15.9
		c-16.5,0-24.7-9-24.7-26.9c0-15.3,8.7-25.1,23.9-25.1c15.2,0,23.2,9.8,23.2,29.4H304.6z M325.2,109.4c-0.2-7.3-5-10.8-10.2-10.8
		c-5.2,0-9.5,4-10.1,10.8H325.2z"/>
	<path class="st1" d="M356.2,138.9V89.5h12.3v5.9c4.3-6.6,9.3-7.2,14.7-7.2h1.7v13.4c-1.2-0.2-2.4-0.3-3.6-0.3c-8,0-12,4-12,11.9
		v25.7H356.2z"/>
	<path class="st1" d="M416.7,138.9c-0.4-1.2-0.7-2.9-0.8-4.4c-3.1,3.4-8.3,5.7-15,5.7c-11.3,0-16.5-5.5-16.5-13.6
		c0-14.3,9.5-15.9,22.7-17.7c6.5-0.9,8.3-2.2,8.3-5.6c0-3.2-3.2-5.1-8.3-5.1c-5.9,0-8.3,2.9-8.9,7.3H386
		c0.2-10.2,5.8-17.4,21.7-17.4c15.7,0,21.1,7,21.1,19.5v31.2H416.7z M415.8,114.7c-1.3,1.3-3.6,2-8.4,2.9c-7.4,1.4-9.9,3.5-9.9,7.7
		c0,3.7,2.2,5.5,6.3,5.5c6.7,0,11.8-4.9,11.9-10.7L415.8,114.7z"/>
	<path class="st0" d="M248,83.2V33.8h13v49.4H248z"/>
	<rect x="248" y="15.8" class="st1" width="13" height="12.1"/>
	<g>
		<path class="st2" d="M153,158.2v-3.7h1.7v17.2c0,2.6-0.7,4.7-2.1,6.4c-1.4,1.6-3.5,2.5-6.3,2.5c-2.3,0-4.1-0.5-5.5-1.6
			c-1.4-1.1-2.3-2.4-2.7-3.9h1.8c0.4,1.2,1.2,2.2,2.4,2.9c1.2,0.7,2.5,1,4.1,1c2.1,0,3.7-0.6,4.9-1.9c1.2-1.2,1.8-2.9,1.8-4.8v-3.7
			c-1.5,2.8-3.9,4.1-7.3,4.1c-2.7,0-4.8-0.9-6.3-2.7c-1.5-1.8-2.3-4-2.3-6.6c0-2.6,0.8-4.8,2.3-6.6c1.5-1.8,3.7-2.7,6.3-2.7
			C149.1,154.1,151.5,155.5,153,158.2z M151.1,169c1.3-1.5,1.9-3.3,1.9-5.5c0-2.2-0.6-4.1-1.9-5.5c-1.3-1.5-3-2.2-5.1-2.2
			s-3.9,0.7-5.2,2.2c-1.3,1.5-2,3.3-2,5.5c0,2.2,0.7,4.1,2,5.5c1.3,1.5,3.1,2.2,5.2,2.2S149.9,170.5,151.1,169z"/>
		<path class="st2" d="M178,154.4v1.6c-0.3,0-0.6,0-0.9,0c-1.7,0-3,0.5-4.1,1.6c-1.1,1-1.6,2.5-1.6,4.4v10.7h-1.7v-18.1h1.7v3
			c0.4-0.8,1.2-1.5,2.2-2.2c1-0.6,2.3-1,3.9-1L178,154.4z"/>
		<path class="st2" d="M195,173.1c-2.1,0-3.6-0.5-4.8-1.4c-1.1-0.9-1.7-2.3-1.7-4c0-3,2.3-4.8,6.8-5.4l6.9-0.9v-0.6
			c0-3.5-1.9-5.3-5.8-5.3c-3.3,0-5.2,1.4-5.8,4.1h-1.7c0.6-3.7,3.1-5.6,7.5-5.6c2.5,0,4.4,0.6,5.6,1.8s1.8,2.9,1.8,5v7.8
			c0,1.9,0.2,3.2,0.5,4h-1.7c-0.3-0.8-0.4-1.9-0.4-3.5c-0.7,1.2-1.7,2.2-3,2.9C198.1,172.8,196.7,173.1,195,173.1z M202.3,163
			l-6.7,0.8c-1.9,0.2-3.3,0.7-4.1,1.3s-1.2,1.5-1.2,2.6c0,1.4,0.5,2.4,1.4,2.9c0.9,0.6,2,0.9,3.3,0.9c2.3,0,4-0.6,5.3-1.9
			c1.3-1.3,2-2.6,2-4.1V163z"/>
		<path class="st2" d="M220.8,168.9v11.2h-1.7v-25.6h1.7v3.7c1.4-2.8,3.9-4.2,7.3-4.2c2.7,0,4.8,0.9,6.4,2.8
			c1.5,1.8,2.3,4.1,2.3,6.7c0,2.6-0.8,4.9-2.3,6.7c-1.5,1.8-3.6,2.8-6.4,2.8C224.6,173.1,222.2,171.7,220.8,168.9z M222.6,157.9
			c-1.3,1.5-1.9,3.4-1.9,5.7c0,2.3,0.6,4.2,1.9,5.7s3,2.3,5.2,2.3c2.2,0,4-0.8,5.3-2.3s1.9-3.4,1.9-5.7c0-2.3-0.6-4.2-1.9-5.7
			s-3-2.3-5.3-2.3C225.6,155.6,223.8,156.4,222.6,157.9z"/>
		<path class="st2" d="M252.1,145.7v11.7c0.4-0.7,1.1-1.5,2.1-2.2s2.4-1.1,4-1.1c2.2,0,3.9,0.6,5.1,1.9s1.8,2.9,1.8,5v11.7h-1.7
			v-11.2c0-1.9-0.5-3.3-1.3-4.3c-0.9-1-2.2-1.5-4-1.5c-1.7,0-3.2,0.5-4.3,1.6c-1.2,1.1-1.7,2.6-1.7,4.6v10.9h-1.7v-27H252.1z"/>
		<path class="st2" d="M282.1,148.9c-0.3,0.3-0.6,0.4-1,0.4c-0.4,0-0.7-0.1-1-0.4c-0.3-0.3-0.4-0.6-0.4-1s0.1-0.7,0.4-1
			c0.3-0.3,0.6-0.4,1-0.4c0.4,0,0.7,0.1,1,0.4c0.3,0.3,0.4,0.6,0.4,1C282.5,148.3,282.4,148.7,282.1,148.9z M280.2,172.7v-18.1h1.7
			v18.1H280.2z"/>
		<path class="st2" d="M298.1,170.3c-1.6-1.9-2.4-4.1-2.4-6.7c0-2.5,0.8-4.8,2.4-6.7c1.6-1.9,3.8-2.8,6.5-2.8c2.2,0,4.1,0.6,5.5,1.9
			s2.4,2.9,2.9,4.9h-1.7c-0.4-1.7-1.2-2.9-2.4-3.9c-1.1-0.9-2.6-1.4-4.3-1.4c-2.1,0-3.8,0.8-5.1,2.2s-2,3.4-2,5.7
			c0,2.3,0.7,4.2,2,5.7c1.3,1.5,3.1,2.2,5.1,2.2c1.8,0,3.2-0.5,4.3-1.4c1.1-0.9,1.9-2.2,2.4-3.9h1.7c-0.5,2-1.4,3.6-2.9,4.9
			c-1.5,1.3-3.3,1.9-5.5,1.9C301.9,173.1,299.8,172.2,298.1,170.3z"/>
		<path class="st2" d="M328.6,172.7h-1.7v-27h1.7V172.7z"/>
		<path class="st2" d="M360.9,172.7l-5.3-16.2l-0.1,0l-5.4,16.2h-1.9l-6.3-18.1h1.9l5.3,16.2l5.4-16.2h1.9l5.4,16.3l5.4-16.3h1.8
			l-6.3,18.1H360.9z"/>
		<path class="st2" d="M397.3,164.1h-15.7c0.1,2.1,0.8,3.9,2.1,5.3c1.3,1.4,3,2.1,5.1,2.1c1.6,0,2.9-0.4,4.1-1.2
			c1.1-0.8,1.9-1.9,2.4-3.3h1.8c-0.6,1.8-1.6,3.3-3,4.4c-1.4,1.1-3.2,1.7-5.3,1.7c-2.8,0-5-0.9-6.5-2.8s-2.3-4.1-2.3-6.7
			c0-2.6,0.8-4.8,2.4-6.7c1.6-1.9,3.8-2.8,6.4-2.8c2.6,0,4.7,0.9,6.3,2.6c1.6,1.8,2.4,3.9,2.4,6.6L397.3,164.1z M388.7,155.7
			c-1.9,0-3.6,0.6-4.8,1.9s-2,2.9-2.2,4.9h14c-0.2-2-0.9-3.7-2.1-4.9C392.2,156.3,390.6,155.7,388.7,155.7z"/>
		<path class="st2" d="M412.7,158.3c1.4-2.8,3.9-4.2,7.3-4.2c2.7,0,4.8,0.9,6.4,2.8c1.5,1.8,2.3,4.1,2.3,6.7c0,2.6-0.8,4.9-2.3,6.7
			s-3.6,2.8-6.4,2.8c-3.4,0-5.9-1.4-7.3-4.2v3.7H411v-27h1.7V158.3z M414.5,157.9c-1.3,1.5-1.9,3.4-1.9,5.7c0,2.3,0.6,4.2,1.9,5.7
			s3,2.3,5.2,2.3c2.2,0,4-0.8,5.3-2.3c1.3-1.5,1.9-3.4,1.9-5.7c0-2.3-0.6-4.2-1.9-5.7c-1.3-1.5-3-2.3-5.3-2.3
			C417.5,155.6,415.8,156.4,414.5,157.9z"/>
	</g>
	<path class="st0" d="M341,138.9V89.5h13.1v49.4H341z"/>
	<path class="st0" d="M354.5,49c0-10.7-6.9-16.5-16.4-16.5c-7.9,0-12.9,3-16,8.5v-7.2h-12.4v49.4h13V54.9c0-7.5,3.3-11.3,10.1-11.3
		c6.2,0,8.4,2.1,8.4,9.7v12.3h13.1V49z"/>
	<rect x="341" y="71.4" class="st1" width="13.1" height="12.2"/>
	<g>
		<g id="_x3C_Radial_Repeat_x3E__00000127006683342563118060000006085312352240275616_">
			<g>
				<path class="st0" d="M63,89.3L62.4,112l-6-0.2l0.6-22.8L63,89.3z"/>
				<g>
					<path class="st0" d="M55.7,130.6c-0.1,5,3,7.7,7.3,7.8c3.7,0.1,6-1.2,7.5-3.7l-0.1,3.3l5.7,0.2l0.6-22.8l-6-0.2l-0.3,13.1
						c-0.1,3.5-1.7,5.2-4.8,5.1c-2.9-0.1-3.9-1.1-3.8-4.6l0.1-5.7l-6.1-0.2L55.7,130.6z"/>
				</g>
				
					<rect x="56.4" y="114.5" transform="matrix(2.636242e-02 -0.9997 0.9997 2.636242e-02 -59.8198 173.5897)" class="st1" width="5.6" height="6"/>
			</g>
		</g>
		<g id="_x3C_Radial_Repeat_x3E__00000036930692034533794320000011236837447683202459_">
			<g>
				<path class="st0" d="M57,80.7l-20,10.9L34,86.3l20-10.9L57,80.7z"/>
				<g>
					<path class="st0" d="M17.5,95.1c-4.4,2.4-5.2,6.4-3.1,10.3c1.7,3.2,4.1,4.6,7,4.6l-2.9,1.6l2.7,5l20-10.9l-2.9-5.3l-11.5,6.2
						c-3.1,1.7-5.3,1.2-6.8-1.6c-1.4-2.5-1-3.9,2.1-5.6l5-2.7l-2.9-5.3L17.5,95.1z"/>
				</g>
				<rect x="27.8" y="88.6" transform="matrix(0.8789 -0.477 0.477 0.8789 -39.9886 25.6983)" class="st1" width="5.6" height="6"/>
			</g>
		</g>
		<g id="_x3C_Radial_Repeat_x3E__00000036947957189578024460000002571202805732316331_">
			<g>
				<path class="st0" d="M61.3,71.3L41.9,59.4l3.2-5.1l19.4,11.9L61.3,71.3z"/>
				<g>
					<path class="st0" d="M29.2,44.3c-4.2-2.6-8.1-1.2-10.4,2.5c-1.9,3.1-1.9,5.8-0.5,8.3l-2.8-1.7l-3,4.9l19.4,11.9L35,65
						l-11.1-6.8c-3-1.8-3.7-4-2-6.7c1.5-2.4,2.9-2.8,5.9-1l4.8,3l3.2-5.2L29.2,44.3z"/>
				</g>
				
					<rect x="35.7" y="51.1" transform="matrix(0.5227 -0.8525 0.8525 0.5227 -27.4568 58.7693)" class="st1" width="6" height="5.6"/>
			</g>
		</g>
		<g id="_x3C_Radial_Repeat_x3E__00000170959827815324015210000004874184375384247176_">
			<g>
				<path class="st0" d="M71.7,70.3l0.6-22.8l6,0.2l-0.6,22.8L71.7,70.3z"/>
				<g>
					<path class="st0" d="M79,29c0.1-5-3-7.7-7.3-7.8c-3.7-0.1-6,1.2-7.5,3.7l0.1-3.3l-5.7-0.2l-0.6,22.8l6,0.2l0.3-13.1
						c0.1-3.5,1.7-5.2,4.8-5.1c2.9,0.1,3.9,1.1,3.8,4.6l-0.1,5.7l6.1,0.2L79,29z"/>
				</g>
				
					<rect x="72.7" y="39.1" transform="matrix(2.636242e-02 -0.9997 0.9997 2.636242e-02 31.4006 116.4322)" class="st1" width="5.6" height="6"/>
			</g>
		</g>
		<g id="_x3C_Radial_Repeat_x3E__00000054260258933342160860000005037808774319083420_">
			<g>
				<path class="st0" d="M77.7,78.9l20-10.9l2.9,5.3l-20,10.9L77.7,78.9z"/>
				<g>
					<path class="st0" d="M117.2,64.5c4.4-2.4,5.2-6.4,3.1-10.3c-1.7-3.2-4.1-4.6-7-4.6l2.9-1.6l-2.7-5l-20,10.9l2.9,5.3l11.5-6.2
						c3.1-1.7,5.3-1.2,6.8,1.6c1.4,2.5,1,3.9-2.1,5.6l-5,2.7l2.9,5.3L117.2,64.5z"/>
				</g>
				<rect x="101.3" y="65" transform="matrix(0.8789 -0.477 0.477 0.8789 -19.8315 57.8681)" class="st1" width="5.6" height="6"/>
			</g>
		</g>
		<g id="_x3C_Radial_Repeat_x3E__00000015348674553800420760000016631206862707709059_">
			<g>
				<path class="st0" d="M73.3,88.3l19.4,11.9l-3.2,5.1L70.2,93.5L73.3,88.3z"/>
				<g>
					<path class="st0" d="M105.5,115.3c4.2,2.6,8.1,1.2,10.4-2.5c1.9-3.1,1.9-5.8,0.5-8.3l2.8,1.7l3-4.9l-19.4-11.9l-3.1,5.1
						l11.1,6.8c3,1.8,3.7,4,2,6.7c-1.5,2.4-2.9,2.8-5.9,1l-4.8-3l-3.2,5.2L105.5,115.3z"/>
				</g>
				
					<rect x="92.9" y="102.9" transform="matrix(0.5227 -0.8525 0.8525 0.5227 -44.322 132.2323)" class="st1" width="6" height="5.6"/>
			</g>
		</g>
	</g>
</g>
</svg>
